inDegrees=no
num_controls=7
num_derivatives=13
num_iterations=214
num_multipliers=7
num_parameters=0
num_slacks=7
num_states=26
objective=6.594892
objective_accelerations=0.699074
objective_balance=0.072491
objective_effort=0.547242
objective_height=5.163855
objective_ligament=0.112230
solver_duration=1824.788514
status=Solve_Succeeded
success=true
DataType=double
version=3
OpenSimVersion=4.4-2022-07-23-0e9fedc
endheader
time	/jointset/ground_pelvis/pelvis_tilt/value	/jointset/ground_pelvis/pelvis_tx/value	/jointset/ground_pelvis/pelvis_ty/value	/jointset/hip_r/hip_flexion_r/value	/jointset/hip_r/hip_adduction_r/value	/jointset/hip_r/hip_rotation_r/value	/jointset/back/lumbar_extension/value	/jointset/patellofemoral_r/patellar_flexion_r/value	/jointset/knee_r/knee_flexion_r/value	/jointset/knee_r/knee_adduction_r/value	/jointset/knee_r/knee_rotation_r/value	/jointset/ankle_r/ankle_angle_r/value	/jointset/subtalar_r/subtalar_angle_r/value	/jointset/ground_pelvis/pelvis_tilt/speed	/jointset/ground_pelvis/pelvis_tx/speed	/jointset/ground_pelvis/pelvis_ty/speed	/jointset/hip_r/hip_flexion_r/speed	/jointset/hip_r/hip_adduction_r/speed	/jointset/hip_r/hip_rotation_r/speed	/jointset/back/lumbar_extension/speed	/jointset/patellofemoral_r/patellar_flexion_r/speed	/jointset/knee_r/knee_flexion_r/speed	/jointset/knee_r/knee_adduction_r/speed	/jointset/knee_r/knee_rotation_r/speed	/jointset/ankle_r/ankle_angle_r/speed	/jointset/subtalar_r/subtalar_angle_r/speed	/forceset/tau_hip_flexion_r	/forceset/tau_hip_adduction_r	/forceset/tau_hip_rotation_r	/forceset/tau_knee_flexion_r	/forceset/tau_ankle_angle_r	/forceset/tau_subtalar_angle_r	/forceset/tau_lumbar_extension	lambda_cid13_p0	lambda_cid14_p0	lambda_cid14_p1	lambda_cid14_p2	lambda_cid14_p3	lambda_cid14_p4	lambda_cid14_p5	/jointset/ground_pelvis/pelvis_tilt/accel	/jointset/ground_pelvis/pelvis_tx/accel	/jointset/ground_pelvis/pelvis_ty/accel	/jointset/hip_r/hip_flexion_r/accel	/jointset/hip_r/hip_adduction_r/accel	/jointset/hip_r/hip_rotation_r/accel	/jointset/back/lumbar_extension/accel	/jointset/patellofemoral_r/patellar_flexion_r/accel	/jointset/knee_r/knee_flexion_r/accel	/jointset/knee_r/knee_adduction_r/accel	/jointset/knee_r/knee_rotation_r/accel	/jointset/ankle_r/ankle_angle_r/accel	/jointset/subtalar_r/subtalar_angle_r/accel	gamma_cid13_p0	gamma_cid14_p0	gamma_cid14_p1	gamma_cid14_p2	gamma_cid14_p3	gamma_cid14_p4	gamma_cid14_p5
1.5	-0.2033885527811609	0.02527325443799108	0.8266466932259079	0.9169319535712559	-0.2218610671022157	-0.1295056022312634	-0.3001283807645169	0.8070546934797471	0.8070546934797455	-0.003973857556076669	0.1745326042441109	0.2730412837284066	0.07057659257384222	0.4804743543402885	0.1930633803618546	0.51886011593972	-2.134968396491412	0.008798150233556236	-0.2535879770539362	0.7012172578739554	-2.174482047856318	-2.174482047856295	0.4040301569879097	-9.714761130864759e-05	-0.6268445116300781	-0.1782710036794059	-0.1283467835531599	-0.01746435554424174	0.01163246583269388	-0.3318493528993327	0.06312702088875616	-0.002682660812847484	0.1641128088135645	-24.85125613499564	-19.98260137965787	-1.438540377031026	-2.994812218192894	1.022350936131798	-646.3698438996423	59.97554606517131	0.3394367384814899	0.4958099292178217	-0.6710474362191243	-1.075382998825291	-0.1205938876315487	-0.7072181695677937	1.588632353572824	-1.308817081361516	-1.308817081361509	0.4402514155572891	-0.08073596960630008	-0.7467308007513791	-0.2183830310497125	1.241340309764415e-07	-2.080371939824648e-07	-3.184641559122584e-06	-1.548208552227293e-06	4.865796305837924e-07	-4.939929151782846e-08	-1.411576065524963e-06
1.51	-0.1985674264668655	0.02722835721575646	0.8318005975701965	0.8955312737970329	-0.2217788370460858	-0.1320834835968414	-0.2930379127408525	0.7852472726580125	0.7852472726580076	8.352990610939881e-05	0.1745323545637498	0.2667364957521191	0.06878384445284393	0.4836806424333236	0.1979204405846536	0.5118075297290847	-2.144872599511249	0.007648487700647986	-0.2619434816833923	0.7167706038821227	-2.186689020500123	-2.186689020500108	0.4074732108141274	2.980818969047835e-05	-0.6340219568949662	-0.1802443557518232	-0.1210848313322993	-0.01843905701044343	0.01131706042488248	-0.3274119322285204	0.06569004944199518	-0.004157608998994089	0.1575604891306876	-26.22127000355082	-18.95758325479627	-1.814381301218855	-3.032277742153227	0.8612978965685864	-641.2257561242832	59.26384067646351	0.3006452860606602	0.475299952190324	-0.7394067653038767	-0.9037488262313375	-0.1129913945511856	-0.8931182275895471	1.522824277891345	-1.129688853354817	-1.129688853355939	0.2994526932191042	0.05605390798739573	-0.6894522240742352	-0.1827875207985972	9.466246608221246e-08	-3.876318105702563e-07	-3.938129076468578e-06	-2.962545337243512e-06	6.804821167369208e-07	-2.117382984958855e-07	-1.423384418093057e-06
1.52	-0.1937163531833708	0.02923095977242566	0.8368805675420151	0.8740403900180779	-0.2217082714069697	-0.1347436003323058	-0.285795083546416	0.763327171810344	0.7633271718103418	0.004175971971968897	0.1745327029519833	0.2603626931562394	0.06697216756602946	0.4864637481802053	0.2025633361426183	0.5040732414457271	-2.153009197437826	0.006465266830507722	-0.2700350510310494	0.7316894920283985	-2.197018053042521	-2.197018053042513	0.4110410777229486	2.246611206481502e-05	-0.6406474355485223	-0.1820567568426752	-0.1138228791114375	-0.01941375847664129	0.01100165501710408	-0.3229745115577061	0.06825307799523599	-0.00563255718513406	0.1510081694478106	-27.57216453134032	-17.93924596716062	-2.190969287284135	-3.070102616607477	0.7252099520978507	-636.1907139825034	58.51990060186353	0.2548002692507411	0.4529769962509982	-0.8073878507636087	-0.7218619801734155	-0.1273055550779656	-0.6544311132079711	1.461740781194521	-0.9332290610799479	-0.9332290610799479	0.4652140320780324	-0.1075955453312406	-0.6363374784849029	-0.1861928347366466	7.966101720448106e-08	-4.863244075877709e-07	-4.349581642109043e-06	-3.771364536363562e-06	7.841737465869379e-07	-3.059498836811653e-07	-1.355205131745252e-06
1.53	-0.1888396560204907	0.03127892361918188	0.8418799049400481	0.8524769809689349	-0.2216494132122684	-0.1374841641471419	-0.2784064721084587	0.7413131545337122	0.7413131545337083	0.008303854870752985	0.1745327947380611	0.2539255738642647	0.06514359987741244	0.4887911438837395	0.2069928508673511	0.4956909256879835	-2.159368407554181	0.005316797096947637	-0.2780743528284662	0.7459101168260218	-2.205468304829171	-2.205468304829179	0.4145171137230175	2.994443523363134e-06	-0.646670985366803	-0.1836074497021303	-0.1060608373802384	-0.02143107563965414	0.01047247036744733	-0.3195602192686746	0.0720423765939027	-0.006560495425288381	0.1441234979956403	-28.90173462318063	-16.51274531342542	-2.212413877709087	-3.217220897638228	0.2227946689058856	-631.4876542878159	58.57729434388763	0.2089864369210719	0.432610602483754	-0.8692182013572411	-0.5473766818626616	-0.1080765558190909	-0.878345776353785	1.383821518458858	-0.7533746660243192	-0.753374666026813	0.2852185686955099	0.05115282222980772	-0.5694107682799704	-0.1332788606421214	8.003406659427821e-08	-4.990586088118672e-07	-4.397622071562385e-06	-3.936821300468939e-06	7.920163416149006e-07	-3.277760832116198e-07	-1.202038979049306e-06
1.54	-0.1839422294573724	0.03337011699156522	0.846792306227888	0.8308590945877288	-0.2216019314895676	-0.140305054192621	-0.2708793347846427	0.7192241444534978	0.719224144453497	0.01246578216648047	0.1745327469674465	0.2474314096671512	0.0633007709903825	0.4906096282279278	0.2112092412680462	0.4866860194071433	-2.163904663850382	0.004189972430423632	-0.2861002971596935	0.7593946692001522	-2.212016613758492	-2.212016613758518	0.4178499571120543	-5.445231201939578e-06	-0.6520564165762956	-0.1849089965252728	-0.0982987956490389	-0.02344839280266521	0.009943285717824497	-0.3161459269796415	0.07583167519257038	-0.007488433665440425	0.1372388265434698	-30.20874770395006	-15.09213731749715	-2.239545936358975	-3.358109837905704	-0.2504239688144121	-626.8655785818852	58.57995419796563	0.1530179973815275	0.4103521314435056	-0.9319059553828958	-0.3572712161425618	-0.1229765416707643	-0.6517596199700711	1.314526296495926	-0.5528404896142833	-0.5528404896142729	0.4365755098716465	-0.1053891465680064	-0.5087137567272356	-0.1363636274741462	7.917416369544146e-08	-5.038647508437748e-07	-4.353561361379073e-06	-4.018705603940446e-06	7.872528595621957e-07	-3.507652780605606e-07	-1.022259077194267e-06
1.55	-0.179029186946487	0.03550231588133545	0.851611621030012	0.8092051733107336	-0.2215653840001336	-0.1432060008365804	-0.2632211145280864	0.697079404362146	0.6970794043621416	0.01666018053993614	0.1745325838534168	0.2408866944503147	0.06144645588928038	0.4919193617667648	0.2151847815416955	0.4770827399021418	-2.166565119318093	0.003136934080973292	-0.2940958071519264	0.7721086883331333	-2.216595722885142	-2.216595722885162	0.4209886386863226	-1.040945683977008e-05	-0.6567741837511237	-0.1858969393175682	-0.09070436512693472	-0.02481948370015465	0.009163976831365373	-0.3125522665811223	0.07928428839474905	-0.008617110856896622	0.1304751463377717	-31.49296217080441	-13.81029910283025	-2.397514883297446	-3.456032374451179	-0.5916186916096561	-622.5503708966804	58.28509947420083	0.1079850769568117	0.3844431536914464	-0.9887468375011202	-0.1733167754731645	-0.09487617045226136	-0.87466474868646	1.228735654977674	-0.3601090055787607	-0.3601090055779761	0.2455431956966261	0.0537043715337244	-0.4363110474138758	-0.07256690170534022	7.689368533361354e-08	-4.995363898933788e-07	-4.203384120744837e-06	-4.004299898420757e-06	7.679649843513314e-07	-3.750944457764528e-07	-8.118155078298393e-07
1.56	-0.1741054402912501	0.03767292780951528	0.8563320614591974	0.7875340706663829	-0.2215390486319697	-0.1461871461924284	-0.2554399748935449	0.6748989406032501	0.6748989406032426	0.02088457147203045	0.1745327219835334	0.2342982009918191	0.05958374990093565	0.4927504570984859	0.2188918489499665	0.4669111448194467	-2.167340937321313	0.002147548176720046	-0.3021400395376225	0.7839785447972556	-2.21916134726733	-2.219161347267344	0.4238484688402801	5.480360133842605e-05	-0.6608120649080831	-0.1865871739737883	-0.08310993460482982	-0.02619057459764578	0.0083846679449104	-0.3089586061826021	0.08273690159692744	-0.009745788048355374	0.1237114661320743	-32.7441280150215	-12.53566029965094	-2.560821275614151	-3.548442865595847	-0.9000721007020247	-618.3421394138352	57.9323095203482	0.05729035595831202	0.3566575583679095	-1.045569070921591	0.01965627675585583	-0.110246052631364	-0.661504098662704	1.145693762724149	-0.150143540721854	-0.1501435407218529	0.3808052258095515	-0.09135368980478703	-0.3727365531534483	-0.07682200025910176	9.05865439093508e-08	-4.200147066566992e-07	-3.829624832531301e-06	-3.383607730092963e-06	6.777241285153171e-07	-3.102368685396611e-07	-7.374880758075901e-07
1.57	-0.1691758555942691	0.03987918178106268	0.860948026891366	0.7658647597621411	-0.2215228301839164	-0.1492460486983449	-0.2475444260996973	0.6527030853109913	0.6527030853109872	0.02513901372794522	0.1745323120218509	0.227672577293037	0.05771478976297977	0.4930802320302847	0.222303902679085	0.4561970777264141	-2.166180859659324	0.001133646332082415	-0.3097238794818938	0.7949777379058877	-2.219655645385119	-2.219655645385114	0.4269073512554668	-7.438600898313437e-05	-0.664189858506237	-0.1871200648185186	-0.07558190983153332	-0.02732004802363447	0.007405276968073248	-0.3053290976718638	0.0860221667479391	-0.01086974064615813	0.117007306983237	-33.94852631562085	-11.3372347408461	-2.736321325011801	-3.637883007896128	-1.123880419246301	-614.4867683178912	57.55548084241408	0.007873906778735425	0.3253020323441841	-1.097061584897069	0.2152263712720993	-0.0918042352066014	-0.8192899219215807	1.054010674943218	0.05400819739389685	0.05400819739683647	0.248047741891639	0.03543107563110337	-0.3017947038137965	-0.02938813742776799	1.242460736570443e-07	-2.465013705621662e-07	-3.176387984843643e-06	-2.005057483255045e-06	4.987920468978663e-07	-1.338958601120155e-07	-8.333058154630627e-07
1.58	-0.1642455625789744	0.04211792084033328	0.8654543044413237	0.7442172582065877	-0.2215157191512787	-0.152383282799624	-0.2395434896567613	0.6305129032664937	0.6305129032664962	0.02941996840651282	0.174532436698488	0.2210168768701398	0.05584292761440698	0.4928921207616096	0.2253888664946059	0.4449735683772608	-2.162979067583264	0.000326065094382154	-0.3178063586106559	0.8050560746149416	-2.218026697714855	-2.218026697714831	0.4291509533713917	0.0001617312717725315	-0.6668274097310876	-0.1871675760971599	-0.06805388505823652	-0.02844952144962595	0.006425885991259468	-0.3016995891611237	0.08930743189895168	-0.01199369324396098	0.1103031478343997	-35.09885371236128	-10.14912774129633	-2.911528944704919	-3.729765827598717	-1.323979932451684	-610.7917944090809	57.19834936547257	-0.0462868841365095	0.2912395756484226	-1.147457522145713	0.4279991595703059	-0.06898193124390602	-0.7612319355608335	0.9615224828084942	0.2745056168885309	0.2745056168885193	0.2177491659572163	-0.01829231158936151	-0.2246880784927132	0.02025391295867985	1.671988708879672e-07	-1.952056226182893e-08	-2.392821734641516e-06	-2.164287330267928e-07	2.703468774073969e-07	1.316263173650847e-07	-1.104997439880688e-06
1.59	-0.1593196213258005	0.04438597469515422	0.8698459822364496	0.7226112555394941	-0.2215172614932999	-0.155597137267113	-0.2314467642975717	0.6083493915709524	0.608349391570946	0.03372609407859301	0.1745329251994329	0.2143381029908535	0.05397069436173941	0.4921956969731086	0.2281750511574701	0.4332907213755995	-2.157884232799752	-0.0006124306993090399	-0.3249917789038383	0.8141208342366839	-2.214321009688221	-2.214321009688209	0.4319860697446639	-3.547032238687178e-05	-0.668790601848153	-0.1872124991914969	-0.05982625858580327	-0.03130324546781513	0.005480056233616083	-0.2997737959921054	0.0947471734132025	-0.01266840222971305	0.1031856564480549	-36.1877682127316	-8.272792021986255	-2.738721200608717	-3.914145582862334	-2.111341865451563	-607.6359161699211	57.7760069511929	-0.09635039038356585	0.265239617907729	-1.189238969912823	0.6008614829678413	-0.1024822362283146	-0.7007629305065338	0.8537282538761901	0.4717439756062699	0.471743975604349	0.3032640439772826	-0.01571465450838737	-0.1616118501967687	-0.006599108987160265	2.227639597032719e-07	2.800232440320959e-07	-1.432379866741188e-06	2.128735128945452e-06	-2.529462562502247e-08	5.181800814092952e-07	-1.61537505076122e-06
